<?xml version="1.0" ?>
<svg enable-background="new 0 0 24 24" id="Layer_1" version="1.1" viewBox="0 0 24 24" xml:space="preserve"
    xmlns="http://www.w3.org/2000/svg"
    xmlns:xlink="http://www.w3.org/1999/xlink">
    <g>
        <path d="M0.5,17.5v4   c0,0,9,0.5,9-15c0-2,0-5,0-5h-1C8.5,1.5,8.9996586,17.5,0.5,17.5z" fill="none" stroke="#303C42" stroke-linecap="round" stroke-linejoin="round" stroke-miterlimit="10"/>
        <path d="M23.5,17.5v4   c0,0-9,0.5-9-15c0-2,0-5,0-5h1C15.5,1.5,15.0003414,17.5,23.5,17.5z" fill="none" stroke="#303C42" stroke-linecap="round" stroke-linejoin="round" stroke-miterlimit="10"/>
        <path d="M15.5,22.5   c-3.5-4-3-21-3-21h-1c0,0,0.5,17-3,21H15.5z" fill="none" stroke="#303C42" stroke-linecap="round" stroke-linejoin="round" stroke-miterlimit="10"/>
    </g>
    <g/>
    <g/>
    <g/>
    <g/>
    <g/>
    <g/>
    <g/>
    <g/>
    <g/>
    <g/>
    <g/>
    <g/>
    <g/>
    <g/>
    <g/>
</svg>