<?xml version="1.0" ?>
<svg enable-background="new 0 0 24 24" id="Layer_1" version="1.1" viewBox="0 0 24 24" xml:space="preserve"
    xmlns="http://www.w3.org/2000/svg"
    xmlns:xlink="http://www.w3.org/1999/xlink">
    <g>
        <path d="M10,1.5C10,1.2236328,9.7763672,1,9.5,1h-1C8.3642578,1,8.2353516,1.0546875,8.140625,1.1523438   C8.046875,1.2490234,7.9960938,1.3798828,8,1.515625c0.0029297,0.0976563,0.2607422,9.8251953-3.6103516,13.8193359   C3.3193359,16.4394531,2.0107422,17,0.5,17C0.2236328,17,0,17.2236328,0,17.5v4c0,0.265625,0.2070313,0.484375,0.4726563,0.4990234   C0.4853516,22,0.5292969,22.0019531,0.6015625,22.0019531c0.5849609,0,2.9960938-0.1376953,5.25-2.2705078   C8.6044922,17.1279297,10,12.6757813,10,6.5V1.5z" fill="#303C42"/>
        <path d="M23.5,17c-1.5097656,0-2.8183594-0.5595703-3.8896484-1.6640625   C15.7421875,11.3457031,15.9970703,1.6132813,16,1.515625c0.0039063-0.1357422-0.046875-0.2666016-0.140625-0.3632813   C15.7646484,1.0546875,15.6357422,1,15.5,1h-1C14.2236328,1,14,1.2236328,14,1.5v5   c0,6.1757813,1.3955078,10.6279297,4.1484375,13.2314453c2.2539063,2.1328125,4.6650391,2.2705078,5.25,2.2705078   c0.0722656,0,0.1162109-0.0019531,0.1289063-0.0029297C23.7929688,21.984375,24,21.765625,24,21.5v-4   C24,17.2236328,23.7763672,17,23.5,17z" fill="#303C42"/>
        <path d="M13,1.5146484c0.0039063-0.1347656-0.046875-0.265625-0.1416016-0.3632813   C12.7646484,1.0546875,12.6347656,1,12.5,1h-1c-0.1347656,0-0.2646484,0.0546875-0.3583984,0.1513672   C11.046875,1.2490234,10.9960938,1.3798828,11,1.5146484c0.0048828,0.1679688,0.4550781,16.8486328-2.8759766,20.65625   c-0.1298828,0.1474609-0.1601563,0.3574219-0.0791016,0.5361328S8.3037109,23,8.5,23h7   c0.1962891,0,0.3740234-0.1142578,0.4550781-0.2929688s0.0507813-0.3886719-0.0791016-0.5361328   C12.5449219,18.3632813,12.9951172,1.6826172,13,1.5146484z" fill="#303C42"/>
    </g>
    <g/>
    <g/>
    <g/>
    <g/>
    <g/>
    <g/>
    <g/>
    <g/>
    <g/>
    <g/>
    <g/>
    <g/>
    <g/>
    <g/>
    <g/>
</svg>